<svg xmlns="http://www.w3.org/2000/svg" width="170" height="68" fill="none" viewBox="0 0 170 68"><path fill="#fff" d="M0 67.03V.873h43.72v11.533H13.96v15.764h26.857v11.533H13.961V67.03zM73.099 68q-6.835 0-11.8-2.455t-7.642-6.655q-2.643-4.231-2.643-9.432 0-3.877 1.547-6.881 1.548-3.004 4.32-5.524 2.774-2.552 6.449-5.072l12.8-8.431q2.483-1.584 3.643-3.328 1.16-1.776 1.16-3.844 0-1.97-1.58-3.65-1.579-1.68-4.48-1.648-1.935 0-3.354.873a6.14 6.14 0 0 0-2.225 2.229q-.773 1.356-.773 3.036 0 2.067 1.16 4.2 1.161 2.131 3.096 4.522A844 844 0 0 0 77 31.044l31.306 35.987H93.991L67.876 37.893q-2.58-2.94-5.159-6.138a35.6 35.6 0 0 1-4.256-6.849q-1.708-3.65-1.708-7.914 0-4.813 2.224-8.658 2.257-3.843 6.32-6.073Q69.359.001 74.775 0q5.288 0 9.125 2.164 3.87 2.133 5.932 5.686 2.096 3.521 2.096 7.753 0 4.685-2.322 8.496-2.289 3.779-6.448 6.784l-13.477 9.723q-2.74 2.003-4.062 4.103-1.29 2.068-1.29 3.973 0 2.358 1.161 4.232 1.16 1.875 3.289 2.972 2.127 1.066 4.997 1.066 3.481 0 6.867-1.583 3.418-1.615 6.19-4.555 2.806-2.971 4.482-7.042t1.677-9.013h11.381q0 6.074-1.322 10.951-1.322 4.845-3.675 8.464-2.354 3.585-5.385 5.88-.967.613-1.87 1.162-.903.55-1.87 1.163a23.3 23.3 0 0 1-8.221 4.297Q77.516 67.999 73.099 68M137.694 67.03h-23.407V.873h23.601q9.962 0 17.152 3.974 7.19 3.941 11.059 11.338Q170 23.582 170 33.887q0 10.338-3.901 17.767-3.869 7.43-11.123 11.403-7.223 3.974-17.282 3.974m-9.446-11.984h8.866q6.19 0 10.414-2.197 4.255-2.23 6.384-6.88 2.16-4.684 2.16-12.082 0-7.334-2.16-11.985-2.128-4.652-6.352-6.848-4.224-2.197-10.414-2.197h-8.898z"/></svg>