<svg xmlns="http://www.w3.org/2000/svg" width="152" height="61" fill="none" viewBox="0 0 152 61"><path fill="#d9a7a7" d="M0 60.13V.783h39.09v10.346H12.482v14.141h24.014v10.346H12.482V60.13zM65.36 61q-6.112 0-10.552-2.202t-6.832-5.97q-2.364-3.795-2.364-8.462 0-3.477 1.384-6.172t3.863-4.956q2.479-2.289 5.765-4.55l11.445-7.563q2.22-1.42 3.257-2.984a6.2 6.2 0 0 0 1.038-3.449q0-1.768-1.412-3.274-1.413-1.508-4.007-1.478-1.73 0-2.998.782a5.5 5.5 0 0 0-1.99 2q-.69 1.216-.691 2.724 0 1.854 1.037 3.767 1.038 1.912 2.768 4.057a755 755 0 0 0 3.776 4.579L96.84 60.13h-12.8L60.69 33.99a173 173 0 0 1-4.612-5.505 32 32 0 0 1-3.806-6.143q-1.528-3.275-1.528-7.1 0-4.318 1.99-7.767 2.017-3.447 5.65-5.447Q62.015-.001 66.858 0q4.728 0 8.158 1.942 3.46 1.912 5.304 5.1 1.874 3.159 1.874 6.955 0 4.2-2.075 7.621-2.047 3.39-5.766 6.086l-12.05 8.722q-2.45 1.797-3.632 3.68-1.153 1.855-1.153 3.565 0 2.115 1.038 3.796t2.94 2.666q1.903.956 4.468.956 3.114 0 6.14-1.42 3.057-1.449 5.536-4.086 2.507-2.666 4.007-6.317t1.499-8.085h10.176q0 5.448-1.182 9.824-1.182 4.346-3.287 7.592-2.103 3.218-4.814 5.274-.864.55-1.672 1.043-.807.494-1.672 1.044a20.8 20.8 0 0 1-7.35 3.854Q69.308 61 65.358 61M123.115 60.13h-20.929V.783h21.102q8.907 0 15.336 3.565 6.429 3.535 9.888 10.171Q152 21.155 152 30.398q0 9.274-3.488 15.939-3.459 6.665-9.946 10.23-6.457 3.564-15.451 3.564m-8.447-10.75h7.928q5.535 0 9.311-1.971 3.806-2 5.708-6.172 1.932-4.202 1.932-10.838 0-6.58-1.932-10.751-1.902-4.173-5.679-6.144-3.776-1.97-9.311-1.97h-7.957z"/></svg>