<svg xmlns="http://www.w3.org/2000/svg" width="18" height="18" fill="none" viewBox="0 0 18 18"><path fill="#1d1b20" d="M9 9q.619 0 1.06-.44.44-.442.44-1.06t-.44-1.06A1.44 1.44 0 0 0 9 6q-.619 0-1.06.44-.44.442-.44 1.06t.44 1.06Q8.383 9 9 9m0 5.512q2.287-2.1 3.394-3.815Q13.5 8.98 13.5 7.65q0-2.044-1.303-3.347T9 3 5.803 4.303 4.5 7.65q0 1.33 1.106 3.047Q6.713 12.413 9 14.513M9 16.5q-3.02-2.569-4.51-4.772T3 7.65q0-2.813 1.81-4.481Q6.62 1.499 9 1.5t4.19 1.669T15 7.65q0 1.876-1.49 4.078Q12.017 13.932 9 16.5"/></svg>