<svg xmlns="http://www.w3.org/2000/svg" width="16" height="16" fill="none" viewBox="0 0 16 16"><g clip-path="url(#a)"><path stroke="#1e1e1e" stroke-linecap="round" stroke-linejoin="round" stroke-width="1.6" d="M14.667 11.28v2a1.33 1.33 0 0 1-1.454 1.333 13.2 13.2 0 0 1-5.753-2.046 13 13 0 0 1-4-4 13.2 13.2 0 0 1-2.047-5.78A1.333 1.333 0 0 1 2.74 1.333h2A1.33 1.33 0 0 1 6.073 2.48a8.6 8.6 0 0 0 .467 1.873 1.33 1.33 0 0 1-.3 1.407l-.847.847a10.67 10.67 0 0 0 4 4l.847-.847a1.33 1.33 0 0 1 1.407-.3 8.6 8.6 0 0 0 1.873.467 1.334 1.334 0 0 1 1.147 1.353"/></g><defs><clipPath id="a"><path fill="#fff" d="M0 0h16v16H0z"/></clipPath></defs></svg>